<svg xmlns="http://www.w3.org/2000/svg" version="1.1" xmlns:xlink="http://www.w3.org/1999/xlink" width="512" height="512" x="0" y="0" viewBox="0 0 512 512" style="enable-background:new 0 0 512 512" xml:space="preserve" class=""><g><linearGradient id="a" x1="256" x2="256" y1="512" y2="0" gradientUnits="userSpaceOnUse"><stop offset="0" stop-color="#5558ff"></stop><stop offset="1" stop-color="#00c0ff"></stop></linearGradient><path fill="url(#a)" d="M196 331h120c8.284 0 15-6.716 15-15V196c0-8.284-6.716-15-15-15H196c-8.284 0-15 6.716-15 15v120c0 8.284 6.716 15 15 15zm15-120h90v90h-90zm226 30h60c8.284 0 15-6.716 15-15v-60c0-8.284-6.716-15-15-15h-60c-8.284 0-15 6.716-15 15v15h-31v-45c0-8.284-6.716-15-15-15h-45V90h15c8.284 0 15-6.716 15-15V15c0-8.284-6.716-15-15-15h-60c-8.284 0-15 6.716-15 15v60c0 8.284 6.716 15 15 15h15v31h-90V90h15c8.284 0 15-6.716 15-15V15c0-8.284-6.716-15-15-15h-60c-8.284 0-15 6.716-15 15v60c0 8.284 6.716 15 15 15h15v31h-45c-8.284 0-15 6.716-15 15v45H90v-15c0-8.284-6.716-15-15-15H15c-8.284 0-15 6.716-15 15v60c0 8.284 6.716 15 15 15h60c8.284 0 15-6.716 15-15v-15h31v90H90v-15c0-8.284-6.716-15-15-15H15c-8.284 0-15 6.716-15 15v60c0 8.284 6.716 15 15 15h60c8.284 0 15-6.716 15-15v-15h31v45c0 8.284 6.716 15 15 15h45v31h-15c-8.284 0-15 6.716-15 15v60c0 8.284 6.716 15 15 15h60c8.284 0 15-6.716 15-15v-60c0-8.284-6.716-15-15-15h-15v-31h90v31h-15c-8.284 0-15 6.716-15 15v60c0 8.284 6.716 15 15 15h60c8.284 0 15-6.716 15-15v-60c0-8.284-6.716-15-15-15h-15v-31h45c8.284 0 15-6.716 15-15v-45h31v15c0 8.284 6.716 15 15 15h60c8.284 0 15-6.716 15-15v-60c0-8.284-6.716-15-15-15h-60c-8.284 0-15 6.716-15 15v15h-31v-90h31v15c0 8.284 6.716 15 15 15zm15-60h30v30h-30zM60 211H30v-30h30zm0 120H30v-30h30zM301 30h30v30h-30zm-120 0h30v30h-30zm30 452h-30v-30h30zm120 0h-30v-30h30zm30-121H151V151h210zm91-60h30v30h-30z" opacity="1" data-original="url(#a)" class=""></path></g></svg>