<svg xmlns="http://www.w3.org/2000/svg" version="1.1" xmlns:xlink="http://www.w3.org/1999/xlink" width="512" height="512" x="0" y="0" viewBox="0 0 68 68" style="enable-background:new 0 0 512 512" xml:space="preserve" class=""><g><path fill="#cdd4df" d="M35.076 6.459v23.913a.991.991 0 0 1-1.982 0V6.459a.991.991 0 0 1 1.982 0zM29.253 17.593v12.252a.991.991 0 0 1-1.982 0V17.593a4.96 4.96 0 0 0-4.954-4.955h-7.21a.991.991 0 0 1 0-1.982h7.21a6.944 6.944 0 0 1 6.936 6.937z" opacity="1" data-original="#cdd4df" class=""></path><path fill="#cdd4df" d="M23.06 26.228v4.913a.991.991 0 0 1-1.982 0v-4.913a4.96 4.96 0 0 0-4.955-4.955H5.037a.991.991 0 0 1 0-1.982h11.086a6.944 6.944 0 0 1 6.937 6.937zM54.05 11.647c0 .548-.444.991-.99.991h-7.211a4.96 4.96 0 0 0-4.955 4.955v12.252a.991.991 0 0 1-1.982 0V17.593a6.944 6.944 0 0 1 6.937-6.937h7.21c.547 0 .991.444.991.991z" opacity="1" data-original="#cdd4df" class=""></path><path fill="#cdd4df" d="M64.12 20.282c0 .548-.444.991-.992.991H52.042a4.96 4.96 0 0 0-4.954 4.955v4.913a.991.991 0 0 1-1.982 0v-4.913a6.944 6.944 0 0 1 6.936-6.937h11.086c.548 0 .991.444.991.991z" opacity="1" data-original="#cdd4df" class=""></path><path fill="#ffd80c" d="M29.74 6.465a4.35 4.35 0 0 1 4.345-4.357 4.35 4.35 0 0 1 4.346 4.357 4.34 4.34 0 0 1-4.346 4.345 4.34 4.34 0 0 1-4.345-4.345z" opacity="1" data-original="#ffd80c"></path><path fill="#ffbe00" d="M34.09 2.108c2.398 0 4.34 1.952 4.34 4.36a4.328 4.328 0 0 1-2.2 3.775l-4.934-7.125a4.33 4.33 0 0 1 2.794-1.01z" opacity="1" data-original="#ffbe00"></path><path fill="#5cbeff" d="M10.561 11.654a4.35 4.35 0 0 1 4.345-4.358 4.35 4.35 0 0 1 4.346 4.358 4.34 4.34 0 0 1-4.346 4.345 4.34 4.34 0 0 1-4.345-4.345z" opacity="1" data-original="#5cbeff"></path><path fill="#079cff" d="M14.911 7.297c2.398 0 4.34 1.952 4.34 4.36a4.328 4.328 0 0 1-2.2 3.775l-4.934-7.125a4.33 4.33 0 0 1 2.794-1.01z" opacity="1" data-original="#079cff"></path><path fill="#4cc66e" d="M2.247 20.288a4.35 4.35 0 0 1 4.345-4.357c2.404 0 4.345 1.953 4.345 4.357s-1.94 4.345-4.345 4.345a4.34 4.34 0 0 1-4.345-4.345z" opacity="1" data-original="#4cc66e"></path><path fill="#14a142" d="M6.596 15.931c2.398 0 4.34 1.953 4.34 4.36a4.328 4.328 0 0 1-2.199 3.776l-4.935-7.125a4.33 4.33 0 0 1 2.794-1.01z" opacity="1" data-original="#14a142"></path><path fill="#5cbeff" d="M61.353 15.971a4.35 4.35 0 0 1 4.4 4.301 4.35 4.35 0 0 1-4.313 4.39c-2.405.023-4.365-1.898-4.389-4.302s1.897-4.365 4.302-4.389z" opacity="1" data-original="#5cbeff"></path><path fill="#079cff" d="M65.753 20.277c.024 2.398-1.909 4.36-4.316 4.384a4.328 4.328 0 0 1-3.798-2.162l7.075-5.006a4.33 4.33 0 0 1 1.04 2.784z" opacity="1" data-original="#079cff"></path><path fill="#c175ff" d="M52.824 7.328a4.35 4.35 0 0 1 3.85 4.8 4.35 4.35 0 0 1-4.811 3.838 4.34 4.34 0 0 1-3.838-4.8 4.34 4.34 0 0 1 4.799-3.838z" opacity="1" data-original="#c175ff"></path><path fill="#b244f1" d="M56.673 12.133c-.265 2.384-2.42 4.098-4.813 3.832a4.328 4.328 0 0 1-3.509-2.604l7.627-4.116a4.33 4.33 0 0 1 .695 2.888z" opacity="1" data-original="#b244f1" class=""></path><path fill="#435e88" d="M63.18 31.155v11.844a3.684 3.684 0 0 1-3.683 3.684H8.503a3.684 3.684 0 0 1-3.684-3.684V31.155a3.684 3.684 0 0 1 3.684-3.684h50.994a3.684 3.684 0 0 1 3.684 3.684z" opacity="1" data-original="#435e88" class=""></path><path fill="#33527d" d="M63.176 31.158v11.837a3.68 3.68 0 0 1-3.679 3.688H8.507l50.99-19.213a3.68 3.68 0 0 1 3.68 3.688z" opacity="1" data-original="#33527d"></path><path fill="#ffd80c" d="M17.94 37.08a3.556 3.556 0 0 1-3.56 3.56 3.564 3.564 0 0 1-3.569-3.56c0-1.967 1.6-3.568 3.569-3.568 1.968 0 3.56 1.6 3.56 3.569z" opacity="1" data-original="#ffd80c"></path><path fill="#ffa300" d="M16.895 39.6a3.57 3.57 0 0 1-5.04 0l5.04-5.04a3.561 3.561 0 0 1 0 5.04z" opacity="1" data-original="#ffa300"></path><path fill="#4cc66e" d="M25.85 37.08a2.043 2.043 0 1 1-4.085-.005 2.043 2.043 0 0 1 4.085.004z" opacity="1" data-original="#4cc66e"></path><path fill="#14a142" d="M25.252 38.524a2.046 2.046 0 0 1-2.889 0l2.889-2.889a2.04 2.04 0 0 1 0 2.889z" opacity="1" data-original="#14a142"></path><path fill="#c175ff" d="M32.163 37.08a2.043 2.043 0 1 1-4.085-.005 2.043 2.043 0 0 1 4.085.004z" opacity="1" data-original="#c175ff"></path><path fill="#b244f1" d="M31.564 38.524a2.046 2.046 0 0 1-2.888 0l2.888-2.889a2.04 2.04 0 0 1 0 2.889z" opacity="1" data-original="#b244f1" class=""></path><path fill="#e5e8ef" d="M57.312 37.077a1.547 1.547 0 0 1-1.544 1.544h-17.17a1.544 1.544 0 1 1 0-3.088h17.17c.853 0 1.544.691 1.544 1.544z" opacity="1" data-original="#e5e8ef"></path><path fill="#cdd4df" d="M46.003 38.62h-7.41a1.537 1.537 0 0 1-1.534-1.546c0-.426.17-.815.45-1.095a1.57 1.57 0 0 1 1.084-.45h7.41a1.6 1.6 0 0 0-1.095.45 1.547 1.547 0 0 0 1.095 2.64z" opacity="1" data-original="#cdd4df" class=""></path><path fill="#435e88" d="M63.18 50.364V62.21a3.684 3.684 0 0 1-3.683 3.683H8.503a3.684 3.684 0 0 1-3.684-3.683V50.364a3.684 3.684 0 0 1 3.684-3.683h50.994a3.684 3.684 0 0 1 3.684 3.683z" opacity="1" data-original="#435e88" class=""></path><path fill="#33527d" d="M63.176 50.368v11.836a3.68 3.68 0 0 1-3.679 3.688H8.507l50.99-19.213a3.68 3.68 0 0 1 3.68 3.689z" opacity="1" data-original="#33527d"></path><path fill="#ffd80c" d="M17.94 56.29a3.556 3.556 0 0 1-3.56 3.56 3.564 3.564 0 0 1-3.569-3.56c0-1.968 1.6-3.568 3.569-3.568 1.968 0 3.56 1.6 3.56 3.569z" opacity="1" data-original="#ffd80c"></path><path fill="#ffa300" d="M16.895 58.81a3.57 3.57 0 0 1-5.04 0l5.04-5.04a3.561 3.561 0 0 1 0 5.04z" opacity="1" data-original="#ffa300"></path><path fill="#4cc66e" d="M25.85 56.29a2.043 2.043 0 1 1-4.085-.005 2.043 2.043 0 0 1 4.085.004z" opacity="1" data-original="#4cc66e"></path><path fill="#14a142" d="M25.252 57.733a2.046 2.046 0 0 1-2.889 0l2.889-2.888a2.04 2.04 0 0 1 0 2.888z" opacity="1" data-original="#14a142"></path><path fill="#c175ff" d="M32.163 56.29a2.043 2.043 0 1 1-4.085-.005 2.043 2.043 0 0 1 4.085.004z" opacity="1" data-original="#c175ff"></path><path fill="#b244f1" d="M31.564 57.733a2.046 2.046 0 0 1-2.888 0l2.888-2.888a2.04 2.04 0 0 1 0 2.888z" opacity="1" data-original="#b244f1" class=""></path><path fill="#e5e8ef" d="M57.312 56.287a1.547 1.547 0 0 1-1.544 1.544h-17.17a1.544 1.544 0 1 1 0-3.088h17.17c.853 0 1.544.69 1.544 1.544z" opacity="1" data-original="#e5e8ef"></path><path fill="#cdd4df" d="M46.003 57.83h-7.41a1.537 1.537 0 0 1-1.534-1.546c0-.426.17-.815.45-1.095a1.57 1.57 0 0 1 1.084-.45h7.41a1.6 1.6 0 0 0-1.095.45 1.547 1.547 0 0 0 1.095 2.64z" opacity="1" data-original="#cdd4df" class=""></path></g></svg>