<svg xmlns="http://www.w3.org/2000/svg" version="1.1" xmlns:xlink="http://www.w3.org/1999/xlink" width="512" height="512" x="0" y="0" viewBox="0 0 512 512" style="enable-background:new 0 0 512 512" xml:space="preserve" class=""><g><path fill="#5b5c6c" d="M454.535 367.875h-31.25V95.195c0-1.722 2.012-2.632 3.281-1.492l.532.477c17.453 15.672 27.437 38.136 27.437 61.726zM84.133 367.875H52.879V95.195c0-1.722 2.012-2.632 3.285-1.492l.527.477c17.454 15.672 27.438 38.136 27.438 61.726v211.969zm0 0" opacity="1" data-original="#5b5c6c"></path><path fill="#464655" d="m427.043 94.18-.531-.477c-1.274-1.14-3.282-.23-3.282 1.492v12.082c10.102 14.004 15.68 31 15.68 48.63v211.968h15.57V155.906c0-23.59-9.984-46.054-27.437-61.726zM56.691 94.18l-.527-.477c-1.273-1.14-3.285-.23-3.285 1.492v12.082a83.14 83.14 0 0 1 15.684 48.63v211.968h15.57V155.906c0-23.59-9.988-46.054-27.442-61.726zm0 0" opacity="1" data-original="#464655"></path><path fill="#5b5c6c" d="M97.16 512H39.652a2.91 2.91 0 0 1-2.91-2.91v-27.164h63.328v27.164a2.91 2.91 0 0 1-2.91 2.91zM467.762 511.375h-57.504a2.91 2.91 0 0 1-2.91-2.914v-27.164h63.328v27.164a2.914 2.914 0 0 1-2.914 2.914zm0 0" opacity="1" data-original="#5b5c6c"></path><path fill="#464655" d="M97.16 496.336H39.652a2.91 2.91 0 0 1-2.91-2.91v-11.82h63.328v11.82a2.912 2.912 0 0 1-2.91 2.91zM467.762 496.031h-57.504a2.91 2.91 0 0 1-2.91-2.914v-11.816h63.328v11.816a2.914 2.914 0 0 1-2.914 2.914zm0 0" opacity="1" data-original="#464655"></path><path fill="#707384" d="M487.574 482.738H19.844C8.883 482.738 0 473.852 0 462.895v-77.333c0-10.957 8.883-19.84 19.844-19.84h467.73c10.957 0 19.844 8.883 19.844 19.84v77.333c-.004 10.957-8.887 19.843-19.844 19.843zm0 0" opacity="1" data-original="#707384" class=""></path><path fill="#5b5c6c" d="M487.57 365.723h-60.593c10.96 0 19.847 8.882 19.847 19.84v77.335c0 10.957-8.886 19.84-19.847 19.84h60.593c10.961 0 19.844-8.883 19.844-19.84v-77.336c.004-10.957-8.883-19.84-19.844-19.84zm0 0" opacity="1" data-original="#5b5c6c"></path><path fill="#7de6c4" d="M284.063 394.39h-60.708a8.88 8.88 0 0 1-8.878-8.878v-19.79h78.46v19.79c0 4.902-3.972 8.879-8.875 8.879zm0 0" opacity="1" data-original="#7de6c4"></path><g fill="#54a1ff"><path d="M269.277 202.992c.043 8.633-6.922 15.656-15.55 15.7-8.625.042-15.66-6.91-15.7-15.547a15.52 15.52 0 0 1 4.645-11.176 15.557 15.557 0 0 1 10.906-4.52 15.585 15.585 0 0 1 11.074 4.528c2.836 2.82 4.606 6.707 4.625 11.015zM253.273 124.969c-14.195.066-27.488 3.914-38.925 10.586-8.825 5.144-10.47 17.195-3.29 24.453l.067.07c5.027 5.078 12.832 6.035 19.012 2.445a46.665 46.665 0 0 1 23.289-6.312 46.66 46.66 0 0 1 23.82 6.36c6.156 3.59 13.953 2.6 18.969-2.462l.066-.066c7.203-7.273 5.52-19.328-3.32-24.484-11.652-6.801-25.223-10.664-39.688-10.59zM252.969 62.484c-32.043.157-61.528 11.012-85.086 29.164-7.38 5.684-8.02 16.598-1.469 23.22l.063.062c5.503 5.57 14.308 6.218 20.515 1.445 18.317-14.102 41.227-22.527 66.13-22.648 25.327-.125 48.675 8.363 67.288 22.714 6.192 4.774 14.992 4.11 20.492-1.445l.059-.058c6.562-6.626 5.914-17.543-1.469-23.239-23.93-18.453-53.96-29.37-86.523-29.215zm0 0" fill="#54a1ff" opacity="1" data-original="#54a1ff"></path><path d="M252.664.004C203.422.242 158.36 17.973 123.34 47.28c-7 5.856-7.512 16.442-1.094 22.93l.059.059c5.742 5.804 14.933 6.125 21.199.89 29.61-24.742 67.707-39.715 109.312-39.918 42.329-.203 81.172 14.91 111.246 40.133 6.196 5.2 15.352 4.746 21.043-.996l.06-.059c6.429-6.488 5.91-17.074-1.09-22.941C348.534 17.598 302.667-.242 252.664.004zm0 0" fill="#54a1ff" opacity="1" data-original="#54a1ff"></path></g><path fill="#4a7fdd" d="M253.672 205.145c-6.2.03-11.563-3.563-14.11-8.786a15.508 15.508 0 0 0-1.535 6.786c.043 8.636 7.075 15.59 15.703 15.546 8.625-.043 15.59-7.066 15.547-15.699a15.464 15.464 0 0 0-1.59-6.75c-2.503 5.238-7.824 8.875-14.015 8.903zM296.223 146.496l-.067.066c-5.015 5.063-12.808 6.051-18.965 2.461a46.713 46.713 0 0 0-23.824-6.359 46.662 46.662 0 0 0-23.285 6.313c-6.18 3.59-13.988 2.632-19.012-2.446l-.066-.07a15.57 15.57 0 0 1-2.91-4.11c-2.696 5.669-1.887 12.754 2.965 17.657l.066.066c5.027 5.082 12.832 6.04 19.012 2.45 6.847-3.981 14.8-6.274 23.289-6.317a46.663 46.663 0 0 1 23.82 6.363c6.156 3.59 13.953 2.598 18.969-2.465l.066-.066c4.89-4.937 5.676-12.074 2.914-17.766a15.604 15.604 0 0 1-2.972 4.223zM340.902 101.395l-.058.058c-5.5 5.55-14.301 6.215-20.492 1.442-18.61-14.348-41.961-22.836-67.29-22.715-24.898.12-47.812 8.55-66.128 22.648-6.204 4.777-15.012 4.125-20.516-1.441l-.063-.063a15.663 15.663 0 0 1-2.937-4.14c-2.727 5.71-1.797 12.84 2.992 17.683l.063.063c5.504 5.57 14.312 6.218 20.515 1.445 18.317-14.102 41.23-22.527 66.13-22.648 25.327-.125 48.679 8.363 67.292 22.714 6.188 4.774 14.988 4.11 20.488-1.445l.059-.058c4.836-4.88 5.742-12.079 2.945-17.813a15.627 15.627 0 0 1-3 4.27zM388.098 52.516a15.56 15.56 0 0 1-2.993 4.261l-.054.055c-5.696 5.746-14.848 6.195-21.043 1-30.074-25.227-68.918-40.34-111.25-40.133-41.602.203-79.703 15.172-109.309 39.918-6.265 5.235-15.46 4.91-21.203-.894l-.059-.059a15.632 15.632 0 0 1-2.925-4.125c-2.727 5.73-1.801 12.836 2.984 17.672l.055.059c5.742 5.804 14.937 6.125 21.203.89 29.605-24.742 67.707-39.715 109.308-39.918 42.333-.203 81.176 14.91 111.25 40.133 6.196 5.2 15.352 4.746 21.043-.996l.06-.059c4.823-4.867 5.737-12.043 2.933-17.804zm0 0" opacity="1" data-original="#4a7fdd"></path><path fill="#ffb96a" d="M60.691 439.496a7.813 7.813 0 0 1-15.625 0 7.814 7.814 0 1 1 15.625 0zm0 0" opacity="1" data-original="#ffb96a"></path><path fill="#a7d16c" d="M91.945 439.496a7.815 7.815 0 0 1-15.629 0c0-4.316 3.5-7.816 7.817-7.816 4.312 0 7.812 3.5 7.812 7.816zm0 0" opacity="1" data-original="#a7d16c"></path><path fill="#a09bff" d="M446.824 439.496a7.815 7.815 0 0 1-15.629 0c0-4.316 3.5-7.816 7.817-7.816 4.312 0 7.812 3.5 7.812 7.816zM478.488 439.496a7.815 7.815 0 0 1-15.629 0c0-4.316 3.5-7.816 7.817-7.816 4.312 0 7.812 3.5 7.812 7.816zm0 0" opacity="1" data-original="#a09bff"></path><path fill="#3b3b47" d="M336.523 432.04H170.891a7.812 7.812 0 0 0-7.813 7.808c0 4.316 3.5 7.812 7.813 7.812h165.632a7.814 7.814 0 0 0 7.817-7.812c0-4.313-3.5-7.809-7.817-7.809zm0 0" opacity="1" data-original="#3b3b47"></path></g></svg>