<svg xmlns="http://www.w3.org/2000/svg" version="1.1" xmlns:xlink="http://www.w3.org/1999/xlink" width="512" height="512" x="0" y="0" viewBox="0 0 512 512" style="enable-background:new 0 0 512 512" xml:space="preserve" class=""><g><g data-name="Layer 2"><path fill="#2e3bba" d="M31.592 232.222h455.602v80.286H31.592z" opacity="1" data-original="#2e3bba" class=""></path><rect width="374.502" height="48.365" x="50.938" y="242.378" fill="#e1eaf4" rx="1.227" opacity="1" data-original="#e1eaf4" class=""></rect><rect width="38.45" height="45.463" x="435.019" y="248.545" fill="#e1eaf4" rx="5.098" opacity="1" data-original="#e1eaf4" class=""></rect><g fill="#152568"><path d="M56.137 259.79h41.594v25.15H56.137zM64.48 255.115h24.908v4.675H64.48zM69.558 248.908h14.751v6.207H69.558zM101.52 259.79h41.594v25.15H101.52zM109.863 255.115h24.908v4.675h-24.908zM114.941 248.908h14.751v6.207h-14.751zM146.903 259.79h41.594v25.15h-41.594zM155.246 255.115h24.908v4.675h-24.908zM160.324 248.908h14.751v6.207h-14.751zM192.285 259.79h41.594v25.15h-41.594zM200.628 255.115h24.908v4.675h-24.908zM205.707 248.908h14.751v6.207h-14.751zM237.668 259.79h41.594v25.15h-41.594zM246.011 255.115h24.908v4.675h-24.908zM251.09 248.908h14.751v6.207H251.09zM283.051 259.79h41.594v25.15h-41.594zM291.394 255.115h24.908v4.675h-24.908zM296.472 248.908h14.751v6.207h-14.751zM328.434 259.79h41.594v25.15h-41.594zM336.777 255.115h24.908v4.675h-24.908zM341.855 248.908h14.751v6.207h-14.751zM373.817 259.79h41.594v25.15h-41.594zM382.16 255.115h24.908v4.675H382.16zM387.238 248.908h14.751v6.207h-14.751z" fill="#152568" opacity="1" data-original="#152568" class=""></path></g><path fill="#4256cc" d="M453.337 175.12H58.676l-27.084 57.102h455.601z" opacity="1" data-original="#4256cc" class=""></path><circle cx="454.244" cy="271.277" r="11.124" fill="#152568" opacity="1" data-original="#152568" class=""></circle><circle cx="76.934" cy="299.812" r="5.441" fill="#68ec6f" opacity="1" data-original="#68ec6f" class=""></circle><circle cx="122.317" cy="299.812" r="5.441" fill="#68ec6f" opacity="1" data-original="#68ec6f" class=""></circle><circle cx="167.7" cy="299.812" r="5.441" fill="#68ec6f" opacity="1" data-original="#68ec6f" class=""></circle><circle cx="213.083" cy="299.812" r="5.441" fill="#68ec6f" opacity="1" data-original="#68ec6f" class=""></circle><circle cx="258.465" cy="299.812" r="5.441" fill="#68ec6f" opacity="1" data-original="#68ec6f" class=""></circle><circle cx="303.848" cy="299.812" r="5.441" fill="#68ec6f" opacity="1" data-original="#68ec6f" class=""></circle><circle cx="349.231" cy="299.812" r="5.441" fill="#68ec6f" opacity="1" data-original="#68ec6f" class=""></circle><circle cx="394.614" cy="299.812" r="5.441" fill="#68ec6f" opacity="1" data-original="#68ec6f" class=""></circle><path fill="#4256cc" d="M56.14 277.804h41.59v7.14H56.14zM101.52 277.804h41.59v7.14h-41.59zM146.9 277.804h41.6v7.14h-41.6zM192.29 277.804h41.59v7.14h-41.59zM237.67 277.804h41.59v7.14h-41.59zM283.05 277.804h41.6v7.14h-41.6zM328.43 277.804h41.6v7.14h-41.6zM373.82 277.804h41.59v7.14h-41.59z" opacity="1" data-original="#4256cc" class=""></path></g></g></svg>