<svg xmlns="http://www.w3.org/2000/svg" version="1.1" xmlns:xlink="http://www.w3.org/1999/xlink" width="512" height="512" x="0" y="0" viewBox="0 0 512 512" style="enable-background:new 0 0 512 512" xml:space="preserve" class=""><g><g fill-rule="evenodd" clip-rule="evenodd"><ellipse cx="256" cy="256" fill="#8ac9fe" rx="240" ry="239.999" transform="rotate(-45 255.972 256.066)" opacity="1" data-original="#8ac9fe"></ellipse><path fill="#60b7ff" d="M256 16c7.406 0 14.729.354 21.964 1.01 35.164 23.926 64.805 55.409 86.547 92.079 20.561-6.4 40.392-14.692 59.064-24.876a241.939 241.939 0 0 1 11.395 11.9c-19.747 11.122-40.754 20.192-62.553 27.21 19.49 37.549 30.961 79.873 32.118 124.677h91.318c.087 2.658.147 5.322.147 8 0 2.679-.06 5.343-.147 8.001h-91.342c-1.272 44.228-12.467 86.676-32.098 124.675 21.8 7.018 42.808 16.089 62.556 27.211a241.473 241.473 0 0 1-11.395 11.9c-18.664-10.18-38.486-18.469-59.037-24.868-21.36 36.168-50.682 67.701-86.558 92.07A243.047 243.047 0 0 1 256 496c-7.413 0-14.741-.354-21.983-1.012-35.875-24.368-65.197-55.901-86.557-92.069-20.551 6.399-40.372 14.688-59.036 24.867a241.473 241.473 0 0 1-11.395-11.9c19.748-11.122 40.755-20.192 62.555-27.21-19.631-37.999-30.826-80.447-32.098-124.675h-91.34A247.11 247.11 0 0 1 16 256c0-2.678.06-5.342.147-7.999h91.316c1.157-44.804 12.628-87.128 32.118-124.678-21.798-7.018-42.804-16.088-62.551-27.209a241.473 241.473 0 0 1 11.395-11.9c18.672 10.184 38.501 18.475 59.062 24.876 21.743-36.67 51.383-68.152 86.547-92.078A242.41 242.41 0 0 1 256 16zm7.999 469.112c34.962-22.661 63.633-52.402 84.625-86.731-27.46-7.138-55.991-11.014-84.625-11.622zm-16-98.353c-28.635.609-57.166 4.485-84.625 11.622 20.992 34.33 49.663 64.071 84.625 86.731zm0-359.868a275.045 275.045 0 0 0-84.593 86.738c27.45 7.132 55.969 11.005 84.593 11.614zm16 98.351c28.623-.608 57.142-4.481 84.592-11.613a275.039 275.039 0 0 0-84.592-86.737zm-16 245.513V264.001H123.493c1.297 42.701 12.362 83.608 31.697 120.037 30.072-8.21 61.397-12.64 92.809-13.283zm0-122.754V141.246c-31.412-.643-62.737-5.072-92.807-13.282-19.198 36.001-30.543 76.785-31.724 120.038h124.531zm16-106.755v106.755h124.53c-1.181-43.253-12.526-84.037-31.724-120.037-30.07 8.209-61.395 12.639-92.806 13.282zm0 122.755v106.754c31.412.643 62.738 5.072 92.809 13.283 19.336-36.429 30.4-77.336 31.697-120.036H263.999z" opacity="1" data-original="#60b7ff"></path><path fill="#8d9ca8" d="M418.307 337.875H93.692c-14.391 0-26.058-36.657-26.058-81.874s11.667-81.874 26.058-81.874h324.615c14.392 0 26.059 36.657 26.059 81.874s-11.666 81.874-26.059 81.874z" opacity="1" data-original="#8d9ca8"></path><path fill="#8192a5" d="M418.307 337.875H93.692c-14.391 0-26.058-36.657-26.058-81.874 0-1.68.018-3.346.05-5 .823 42.888 12.151 76.874 26.008 76.874h324.615c13.858 0 25.186-33.986 26.009-76.874.032 1.654.05 3.321.05 5 0 45.217-11.666 81.874-26.059 81.874z" opacity="1" data-original="#8192a5"></path><path fill="#8192a5" d="M392.248 256c0 21.507 2.639 41.078 6.956 55.688 4.759 16.107 11.556 26.186 19.103 26.186 13.533 0 24.656-32.411 25.936-73.874a260.23 260.23 0 0 0 0-16c-1.28-41.464-12.403-73.875-25.936-73.875-7.513 0-14.284 9.99-19.039 25.972-4.354 14.635-7.02 34.291-7.02 55.903z" opacity="1" data-original="#8192a5"></path><path fill="#65788e" d="M405.818 327.874c3.709 6.375 7.964 10 12.489 10 13.533 0 24.656-32.411 25.936-73.874a260.23 260.23 0 0 0 .075-12.996l-.002-.005c-.823 42.888-12.151 76.874-26.009 76.874h-12.489z" opacity="1" data-original="#65788e"></path><path fill="#ffe177" d="M161.384 237.453a7.965 7.965 0 0 1-8.937 13.187l-29.17-19.792a7.965 7.965 0 0 1 .14-13.282l29.03-19.697a7.965 7.965 0 0 1 8.937 13.187l-7.663 5.2h178.416a8 8 0 0 1 0 16H153.724z" opacity="1" data-original="#ffe177"></path><path fill="#6cf5c2" d="M307.436 314.132a7.964 7.964 0 0 1-11.062-2.125 7.964 7.964 0 0 1 2.125-11.062l7.66-5.198H127.745a8 8 0 0 1 0-16h178.416l-7.663-5.2a7.965 7.965 0 0 1 8.937-13.187l29.03 19.697a7.964 7.964 0 0 1 .14 13.282z" opacity="1" data-original="#6cf5c2"></path></g></g></svg>