<svg xmlns="http://www.w3.org/2000/svg" version="1.1" xmlns:xlink="http://www.w3.org/1999/xlink" width="512" height="512" x="0" y="0" viewBox="0 0 52 52" style="enable-background:new 0 0 512 512" xml:space="preserve" class=""><g><path fill="#797bb1" d="M22 32.3h-.2l-13-4.2c-.3-.1-.4-.4-.3-.7s.4-.4.7-.3l13.1 4.2c.3.1.4.4.3.6-.2.3-.4.4-.6.4zM23 44.6c-.1 0-.3 0-.4-.1l-15-15.2c-.2-.2-.2-.5 0-.8.2-.2.5-.2.8 0l15.1 15.1c.2.2.2.5 0 .8-.2.1-.3.2-.5.2zM43.8 34.1c-.1 0-.2 0-.3-.1L28.9 22.1c-.2-.2-.2-.5-.1-.8.2-.2.5-.2.8-.1l14.5 11.9c.2.2.2.5.1.8-.1.2-.2.2-.4.2zM8.9 25c-.2 0-.4-.1-.5-.4s.1-.7.3-.7l13.1-4.2c.3-.1.6.1.6.3.1.3-.1.6-.3.6L9.1 25h-.2zM29.8 45.7c-.2 0-.4-.1-.5-.3s0-.6.2-.8L43 37.7c.2-.1.6 0 .8.2.1.2 0 .6-.2.8L30 45.6c-.1 0-.1.1-.2.1zM43.3 14.3c-.1 0-.2 0-.2-.1L29.6 7.4c-.3-.1-.4-.4-.3-.8.1-.3.4-.3.8-.2l13.5 6.9c.2.1.3.4.2.8-.1.1-.4.2-.5.2zM7.9 23.5c-.1 0-.3 0-.4-.1-.2-.2-.2-.5 0-.8l15.1-15c.2-.2.5-.2.8 0 .2.2.2.5 0 .8l-15.1 15c-.1.1-.2.1-.4.1z" opacity="1" data-original="#797bb1"></path><path fill="#797bb1" d="M29.3 30.9c-.1 0-.3-.1-.4-.2-.2-.2-.1-.5.1-.8L43.4 18c.2-.2.5-.1.8.1.2.2.1.5-.1.8L29.6 30.8c-.1.1-.2.1-.3.1zM22.2 17.6c-.1 0-.2 0-.2-.1l-13.4-7c-.4-.2-.5-.5-.3-.7.1-.2.4-.3.8-.2l13.4 7c.2.1.3.4.2.8-.1 0-.3.2-.5.2zM8.7 42.4c-.2 0-.4-.1-.5-.3s0-.6.2-.8l13.5-6.9c.3-.1.6 0 .8.2.1.2 0 .7-.2.8L9 42.4h-.3z" opacity="1" data-original="#797bb1"></path><path fill="#c4cce2" d="M9.9 26c0 2.7-2.2 5-5 5-1.8 0-3.4-1-4.2-2.4C.2 27.8 0 27 0 26c0-2.7 2.2-5 5-5 1 0 1.8.2 2.5.7 1.5.9 2.4 2.5 2.4 4.3" opacity="1" data-original="#c4cce2"></path><path fill="#ffb6b6" d="M9.9 8.2c0 2.7-2.2 5-5 5-1.8 0-3.4-1-4.2-2.4-.5-.7-.7-1.6-.7-2.6 0-2.7 2.2-5 5-5 1 0 1.8.2 2.5.7 1.4 1 2.4 2.5 2.4 4.3" opacity="1" data-original="#ffb6b6"></path><path fill="#b4e2ff" d="M31 19c0 2.7-2.2 5-5 5-1.8 0-3.4-1-4.2-2.4-.4-.8-.7-1.6-.7-2.5 0-2.7 2.2-5 5-5 1 0 1.8.2 2.5.8 1.4.7 2.4 2.3 2.4 4.1" opacity="1" data-original="#b4e2ff"></path><path fill="#ffb6b6" d="M52 15.7c0 2.7-2.2 5-5 5-1.8 0-3.4-1-4.2-2.4-.4-.8-.6-1.6-.6-2.5 0-2.7 2.2-5 5-5 1 0 1.8.2 2.5.8 1.3.8 2.3 2.3 2.3 4.1" opacity="1" data-original="#ffb6b6"></path><path fill="#ffe2b8" d="M52 36.3c0 2.7-2.2 5-5 5-1.8 0-3.4-1-4.2-2.4-.4-.8-.8-1.6-.8-2.6 0-2.7 2.2-5 5-5 1 0 1.8.2 2.5.6 1.5 1 2.5 2.7 2.5 4.4" opacity="1" data-original="#ffe2b8"></path><path fill="#c9f5c2" d="M31 5c0 2.7-2.2 5-5 5-1.8 0-3.4-1-4.2-2.4-.4-.8-.7-1.6-.7-2.5C21 2.2 23.3 0 26 0c1 0 1.8.2 2.5.7C30 1.5 31 3.1 31 5" opacity="1" data-original="#c9f5c2"></path><path fill="#dbe2f2" d="M31 47c0 2.7-2.2 5-5 5-1.8 0-3.4-1-4.2-2.4-.5-.7-.8-1.6-.8-2.6 0-2.7 2.2-5 5-5 1 0 1.8.2 2.5.6C30 43.7 31 45.3 31 47" opacity="1" data-original="#dbe2f2"></path><path fill="#e2cbc8" d="M31 33c0 2.7-2.2 5-5 5-1.8 0-3.4-1-4.2-2.4-.4-.8-.7-1.6-.7-2.5 0-2.7 2.2-5 5-5 1 0 1.8.2 2.5.6 1.4 1 2.4 2.5 2.4 4.3" opacity="1" data-original="#e2cbc8"></path><path fill="#ffe2b8" d="M9.3 43.8c0 2.4-2 4.4-4.4 4.4s-4.4-2-4.4-4.4 1.9-4.4 4.4-4.4c2.5-.1 4.4 1.9 4.4 4.4" opacity="1" data-original="#ffe2b8"></path><path fill="#aab6d6" d="M8.2 24.3c0 2.8-2.3 5-5 5-1 0-1.8-.2-2.5-.7C.2 27.8 0 27 0 26c0-2.7 2.2-5 5-5 1 0 1.8.2 2.5.7.4.8.7 1.7.7 2.6" opacity="1" data-original="#aab6d6"></path><path fill="#ff9797" d="M8.2 6.5c0 2.7-2.2 5-5 5-1 0-1.8-.2-2.5-.8-.5-.6-.7-1.5-.7-2.5 0-2.7 2.2-5 5-5 1 0 1.8.2 2.5.7.4.9.7 1.7.7 2.6" opacity="1" data-original="#ff9797"></path><path fill="#94d5ff" d="M29.3 17.3c0 2.7-2.2 5-5 5-1 0-1.8-.2-2.5-.8-.4-.8-.7-1.6-.7-2.5 0-2.7 2.2-5 5-5 1 0 1.8.2 2.5.8.4.7.7 1.6.7 2.5" opacity="1" data-original="#94d5ff"></path><path fill="#ff9797" d="M50.3 14c0 2.7-2.2 5-5 5-1 0-1.8-.2-2.5-.8-.4-.8-.6-1.6-.6-2.5 0-2.7 2.2-5 5-5 1 0 1.8.2 2.5.8.4.7.6 1.6.6 2.5" opacity="1" data-original="#ff9797"></path><path fill="#ffd599" d="M50.3 34.7c0 2.7-2.2 5-5 5-1 0-1.8-.2-2.5-.8-.4-.8-.8-1.6-.8-2.6 0-2.7 2.2-5 5-5 1 0 1.8.2 2.5.6.6.9.8 1.8.8 2.8" opacity="1" data-original="#ffd599"></path><path fill="#b1f1a8" d="M29.3 3.3c0 2.7-2.2 5-5 5-1 0-1.8-.2-2.5-.8-.4-.8-.7-1.6-.7-2.5-.1-2.8 2.2-5 4.9-5 1 0 1.8.2 2.5.7.5.7.8 1.6.8 2.6" opacity="1" data-original="#b1f1a8"></path><path fill="#ccd6ec" d="M29.3 45.4c0 2.7-2.2 5-5 5-1 0-1.8-.2-2.5-.6-.5-.8-.8-1.7-.8-2.7 0-2.7 2.2-5 5-5 1 0 1.8.2 2.5.6.5.9.8 1.7.8 2.7" opacity="1" data-original="#ccd6ec"></path><path fill="#d6b5b0" d="M29.3 31.3c0 2.7-2.2 5-5 5-1 0-1.8-.2-2.5-.8-.4-.8-.7-1.6-.7-2.5 0-2.7 2.2-5 5-5 1 0 1.8.2 2.5.6.4.9.7 1.8.7 2.7" opacity="1" data-original="#d6b5b0"></path><path fill="#ffd599" d="M7.7 42c0 2.4-1.9 4.4-4.4 4.4-.8 0-1.5-.2-2.2-.5-.3-.7-.5-1.4-.5-2.2 0-2.4 2-4.4 4.4-4.4.8 0 1.5.2 2.2.5.3.7.5 1.5.5 2.2" opacity="1" data-original="#ffd599"></path><path fill="#fefefe" d="M6.1 26c0 .2 0 .3-.1.5-.2.3-.5.5-1 .5-.3 0-.5-.1-.8-.3-.2-.2-.3-.4-.3-.7 0-.6.5-1.1 1.1-1.1s1.1.5 1.1 1.1M6.1 8.2c0 .2 0 .3-.1.5-.3.4-.6.6-1 .6-.3 0-.7-.1-.8-.3-.2-.2-.3-.4-.3-.8 0-.7.5-1.1 1.1-1.1s1.1.6 1.1 1.1M6.1 43.8c0 .2 0 .3-.1.5-.3.3-.6.7-1 .7-.3 0-.5-.1-.8-.3s-.3-.4-.3-.8c0-.6.5-1.1 1.1-1.1.5-.1 1.1.3 1.1 1M27.1 5c0 .2 0 .3-.1.5-.2.3-.5.7-1 .7-.3 0-.5-.1-.8-.3-.2-.4-.3-.6-.3-.9 0-.7.5-1.1 1.1-1.1.7 0 1.1.4 1.1 1.1M27.1 19c0 .2 0 .3-.1.5-.2.3-.5.7-1 .7-.3 0-.5-.1-.8-.3-.2-.2-.3-.4-.3-.8 0-.6.5-1.1 1.1-1.1.7-.1 1.1.4 1.1 1M27.1 33c0 .2 0 .3-.1.5-.2.3-.5.6-1 .6-.3 0-.5-.1-.8-.3-.2-.3-.3-.5-.3-.9 0-.7.5-1.1 1.1-1.1.7.2 1.1.6 1.1 1.2M27.1 47c0 .2 0 .3-.1.5-.2.3-.5.6-1 .6-.3 0-.5-.1-.8-.3-.2-.2-.3-.5-.3-.9 0-.6.5-1.1 1.1-1.1.7.1 1.1.7 1.1 1.2M48.1 15.7c0 .2 0 .3-.1.5-.2.3-.5.7-1 .7-.3 0-.5-.1-.8-.3s-.3-.4-.3-.8c0-.7.5-1.1 1.1-1.1.7-.1 1.1.4 1.1 1M48.1 36.3c0 .2 0 .3-.1.5-.2.3-.5.6-1 .6-.3 0-.5-.1-.8-.3s-.3-.4-.3-.8c0-.7.5-1.1 1.1-1.1.7 0 1.1.6 1.1 1.1" opacity="1" data-original="#fefefe"></path></g></svg>